<?xml version="1.0" encoding="UTF-8" standalone="no"?>
<!-- Created with Inkscape (http://www.inkscape.org/) -->

<svg
   version="1.1"
   id="svg2"
   width="517.38947"
   height="517.38947"
   viewBox="0 0 517.38947 517.38947"
   sodipodi:docname="warning.svg"
   inkscape:version="1.2.2 (b0a8486541, 2022-12-01)"
   xmlns:inkscape="http://www.inkscape.org/namespaces/inkscape"
   xmlns:sodipodi="http://sodipodi.sourceforge.net/DTD/sodipodi-0.dtd"
   xmlns="http://www.w3.org/2000/svg"
   xmlns:svg="http://www.w3.org/2000/svg">
  <defs
     id="defs6" />
  <sodipodi:namedview
     id="namedview4"
     pagecolor="#ffffff"
     bordercolor="#000000"
     borderopacity="0.25"
     inkscape:showpageshadow="2"
     inkscape:pageopacity="0.0"
     inkscape:pagecheckerboard="0"
     inkscape:deskcolor="#d1d1d1"
     showgrid="false"
     inkscape:zoom="0.83496095"
     inkscape:cx="444.33216"
     inkscape:cy="42.516958"
     inkscape:window-width="1920"
     inkscape:window-height="1051"
     inkscape:window-x="-9"
     inkscape:window-y="-9"
     inkscape:window-maximized="1"
     inkscape:current-layer="g8" />
  <g
     inkscape:groupmode="layer"
     inkscape:label="Image"
     id="g8">
    <path
       id="rect448"
       style="fill:#ffffff;stroke-width:0.374173"
       d="M 267.96788,39.803081 C 362.33167,127.70562 472.34417,337.83997 503.89007,402.62086 480.52878,496.17299 98.439924,501.01662 42.396826,452.41919 0.30405134,417.83391 158.47854,110.68149 267.96788,39.803081 Z"
       sodipodi:nodetypes="cccc" />
    <path
       style="fill:#000000;stroke-width:1.01053"
       d="M 78.035393,494.90638 C 53.156723,491.68681 29.692663,476.75926 14.637173,454.57318 3.3185231,437.8938 -2.4300969,414.29357 0.00304315,394.49465 1.2850531,384.0627 5.0207531,371.04018 9.0031531,363.12055 12.487993,356.1904 176.27615,72.448272 180.79067,65.520558 193.45539,46.086006 213.08934,31.789456 235.11101,25.96696 c 11.57887,-3.061434 33.97646,-3.04981 45.47369,0.0236 21.61978,5.779345 40.64251,19.134156 52.74349,37.028316 5.0537,7.473094 168.39881,290.238254 173.3599,300.101674 12.41199,24.67698 12.72502,53.53148 0.85551,78.86034 -5.0351,10.74464 -10.49384,18.67393 -18.18124,26.40986 -14.83581,14.92948 -32.2265,23.62842 -53.01878,26.52037 -9.4625,1.31611 -348.136127,1.31163 -358.308187,-0.005 z M 431.15312,453.54324 c 32.43711,-4.53929 52.72714,-41.03338 39.03663,-70.21216 -3.93972,-8.3968 -168.29078,-292.930478 -172.63214,-298.870358 -7.28124,-9.962228 -19.32458,-16.993358 -32.63607,-19.053545 -10.06151,-1.557196 -19.85239,0.06949 -29.51565,4.903824 -14.38616,7.197103 -9.77825,-0.02614 -103.11787,161.645209 -46.548427,80.62546 -85.757527,149.04692 -87.131327,152.04771 -10.77486,23.53537 0.1442,53.23597 23.86624,64.91781 4.16777,2.05241 10.10005,4.04467 13.49861,4.53328 8.64898,1.24349 339.777477,1.32729 348.631577,0.0882 z M 247.15566,406.17168 c -16.15063,-7.3352 -20.57458,-28.60506 -8.68652,-41.76373 5.62988,-6.23159 10.48408,-8.31423 19.37871,-8.31423 5.8285,0 8.53463,0.50597 11.71673,2.19072 4.88848,2.58818 10.17642,8.32668 12.25329,13.29734 2.07764,4.97249 2.01915,15.86151 -0.11198,20.84403 -5.43104,12.69768 -22.1833,19.3626 -34.55023,13.74587 z m 1.78121,-71.44355 c -3.85646,-1.92176 -5.97707,-3.83789 -7.92381,-7.15975 -2.62132,-4.47296 -2.69054,-5.09762 -5.00033,-45.12337 -1.28821,-22.32319 -3.03578,-51.08573 -3.88348,-63.91676 -1.71585,-25.97168 -1.98603,-28.39057 -1.62843,-40.23706 0.46696,-15.46924 30.96685,-13.44314 27.96487,-13.49231 0,0 27.76411,-1.09547 25.98325,17.49556 -0.3471,3.62354 -1.3415,37.00295 -2.78477,60.06822 -1.44325,23.06526 -2.88481,49.44 -3.20346,58.61052 -0.71054,20.44877 -1.98921,25.74385 -7.39641,30.62892 -6.84008,6.17961 -13.97651,7.1878 -22.12743,3.12603 z"
       id="path293"
       sodipodi:nodetypes="csssssssssssccssssssssssssssssssssssscsssss" />
  </g>
</svg>
